#!OML:ASF H:\GeneralSubjects\Female5\Project 1\Capture day 1\Session 1\Female5.ASF
:FULLY-SPECIFIED
:DEGREES
429
root 24.7275 15.738 10.841 -531.375 -45.4089 -177.584
lowerback 13.5751 2.81959 2.37239
upperback -11.4464 4.1194 0.882705
thorax -21.2005 1.32555 -1.47472
lowerneck -15.466 3.01034 2.95364
upperneck 38.5079 1.82084 -1.32485
head 16.4958 0.179572 -1.0234
rclavicle 6.75868e-014 3.49861e-014
rhumerus -51.6233 20.9037 -89.1721
rradius 36.7274
rwrist -14.4747
rhand -24.8922 -20.1294
rfingers 7.12502
rthumb 1.61566 -50.103
lclavicle 6.75868e-014 3.49861e-014
lhumerus -53.7599 -3.30021 76.9641
lradius 38.9208
lwrist -3.36922
lhand -23.0383 27.7737
lfingers 7.12502
lthumb 3.40615 57.7262
rfemur -8.35197 8.06249 40.7581
rtibia 4.50821
rfoot -19.0117 -15.0535
rtoes -1.62617
lfemur -27.7936 5.43039 -19.5486
ltibia 60.939
lfoot -27.7481 8.41325
ltoes -37.9815
430
root 24.5367 15.7512 10.7059 -531.465 -43.6014 -177.392
lowerback 13.5912 2.97747 2.38056
upperback -11.4288 4.35629 1.02265
thorax -21.1932 1.43976 -1.38409
lowerneck -15.3137 3.34993 3.14255
upperneck 38.52 2.37717 -1.63911
head 16.4922 0.379148 -1.0993
rclavicle -3.18552e-014 -1.82882e-014
rhumerus -50.9161 21.3722 -89.111
rradius 37.2856
rwrist -14.778
rhand -24.5715 -19.9743
rfingers 7.12502
rthumb 1.92539 -49.9453
lclavicle -3.18552e-014 -1.82882e-014
lhumerus -54.2362 -3.05319 76.8727
lradius 38.8264
lwrist -2.97994
lhand -24.3975 24.9574
lfingers 7.12502
lthumb 2.09345 54.9268
rfemur -6.91784 8.91855 41.0103
rtibia 3.8946
rfoot -18.7127 -14.7015
rtoes -3.05496
lfemur -30.2427 4.43686 -19.475
ltibia 60.1142
lfoot -29.7458 3.49935
ltoes -35.4775
431
root 24.3442 15.7625 10.566 -531.605 -41.755 -177.168
lowerback 13.5521 3.1043 2.66726
upperback -11.3327 4.59685 1.0383
thorax -21.0016 1.50949 -1.59385
lowerneck -15.1972 3.70802 3.29071
upperneck 38.4216 2.90332 -1.72472
head 16.4363 0.601041 -1.06818
rclavicle 4.12478e-014 3.53837e-014
rhumerus -50.0319 21.667 -89.1808
rradius 37.7399
rwrist -15.0511
rhand -24.516 -20.0868
rfingers 7.12502
rthumb 1.979 -50.0573
lclavicle 4.12478e-014 3.53837e-014
lhumerus -54.3817 -2.95931 76.5191
lradius 38.5627
lwrist -2.39888
lhand -16.0395 40.3354
lfingers 7.12502
lthumb 10.1621 70.07
rfemur -5.4775 9.72781 41.2888
rtibia 3.36339
rfoot -18.1896 -14.3169
rtoes -3.70934
lfemur -31.8944 3.61931 -19.2236
ltibia 57.2776
lfoot -30.5999 3.55605
ltoes -37.6576
432
root 24.157 15.7683 10.4234 -531.758 -40.0501 -176.979
lowerback 13.6606 3.22281 3.04343
upperback -11.2328 4.83962 0.940024
thorax -20.8859 1.55416 -1.9981
lowerneck -15.0699 4.01839 3.577
upperneck 38.2018 3.32431 -1.79808
head 16.3164 0.810546 -1.07157
rclavicle 3.35946e-014 -4.77083e-015
rhumerus -49.1855 21.8015 -89.4
rradius 38.1491
rwrist -15.3489
rhand -24.6405 -20.0963
rfingers 7.12502
rthumb 1.8588 -50.068
lclavicle 3.35946e-014 -4.77083e-015
lhumerus -54.1402 -2.99746 75.9524
lradius 37.9645
lwrist -2.42588
lhand -9.44706 43.1768
lfingers 7.12502
lthumb 16.5161 72.4939
rfemur -4.08353 10.4368 41.5525
rtibia 2.93897
rfoot -17.7103 -14.135
rtoes -5.98666
lfemur -33.6937 3.13507 -19.1153
ltibia 54.3662
lfoot -31.2016 4.62305
ltoes -39.9209
433
root 23.9666 15.7683 10.2774 -531.933 -38.6021 -176.805
lowerback 13.8394 3.28511 3.4588
upperback -11.1762 5.01914 0.857704
thorax -20.8779 1.56221 -2.39073
lowerneck -14.7964 4.30159 3.89416
upperneck 37.9241 3.70898 -1.90334
head 16.1345 1.00602 -1.10218
rclavicle 1.19768e-013 5.00937e-014
rhumerus -48.5829 22.0952 -89.7576
rradius 38.4982
rwrist -15.6219
rhand -24.8848 -19.9114
rfingers 7.12502
rthumb 1.62279 -49.8849
lclavicle 1.19768e-013 5.00937e-014
lhumerus -54.0587 -2.95148 75.3297
lradius 37.5196
lwrist -3.04993
lhand -11.7376 40.0982
lfingers 7.12502
lthumb 14.3099 69.5851
rfemur -2.63567 11.208 41.8018
rtibia 2.49826
rfoot -17.5532 -14.2357
rtoes -8.83435
lfemur -35.3292 2.1203 -18.8682
ltibia 51.3097
lfoot -32.4694 1.09906
ltoes -35.5149
434
root 23.7607 15.7667 10.1228 -532.255 -37.1213 -176.514
lowerback 14.0165 3.3551 3.96619
upperback -11.1232 5.24592 0.87118
thorax -20.8709 1.58707 -2.73432
lowerneck -14.4326 4.58651 4.09056
upperneck 37.6595 4.10484 -1.94163
head 15.9354 1.19584 -1.08345
rclavicle -1.30502e-013 -7.196e-014
rhumerus -48.2515 22.5952 -90.1614
rradius 38.8386
rwrist -15.7208
rhand -25.0736 -19.8039
rfingers 7.12502
rthumb 1.44047 -49.7788
lclavicle -1.30502e-013 -7.196e-014
lhumerus -54.317 -2.99271 74.8678
lradius 37.2985
lwrist -3.29628
lhand -14.5314 37.0665
lfingers 7.12502
lthumb 11.6166 66.7245
rfemur -1.07736 11.981 42.1102
rtibia 2.10012
rfoot -17.468 -14.0099
rtoes -9.29306
lfemur -36.1694 0.974819 -18.4044
ltibia 46.7514
lfoot -32.6868 -1.30279
ltoes -33.0762
435
root 23.5684 15.7577 9.97121 -532.402 -35.771 -176.24
lowerback 14.2764 3.41581 4.44006
upperback -11.163 5.45165 0.856695
thorax -21.0481 1.59088 -3.09441
lowerneck -14.093 4.84804 4.34165
upperneck 37.4102 4.47178 -2.04405
head 15.7567 1.37294 -1.10855
rclavicle 1.39149e-015 1.19271e-014
rhumerus -48.1054 23.0286 -90.6105
rradius 39.2359
rwrist -15.599
rhand -25.1678 -19.8593
rfingers 7.12502
rthumb 1.34952 -49.8347
lclavicle 1.39149e-015 1.19271e-014
lhumerus -54.6475 -3.30484 74.4505
lradius 37.2177
lwrist -3.06966
lhand -17.2544 34.0068
lfingers 7.12502
lthumb 8.98988 63.7952
rfemur 0.137033 12.7494 42.4045
rtibia 1.89685
rfoot -17.4306 -13.6275
rtoes -8.49947
lfemur -36.9884 -0.191008 -17.836
ltibia 41.9718
lfoot -33.7247 2.36134
ltoes -38.0699
436
root 23.3735 15.744 9.81189 -532.475 -34.3162 -175.952
lowerback 14.4344 3.51707 4.92689
upperback -11.2232 5.70689 0.827953
thorax -21.1715 1.61219 -3.48686
lowerneck -13.7982 5.16232 4.65413
upperneck 37.233 4.92123 -2.21775
head 15.6379 1.58087 -1.16227
rclavicle -5.6107e-014 -2.3059e-014
rhumerus -48.1668 23.5787 -91.1725
rradius 39.7428
rwrist -15.4135
rhand -25.19 -19.898
rfingers 7.12502
rthumb 1.3281 -49.8737
lclavicle -5.6107e-014 -2.3059e-014
lhumerus -54.719 -3.12523 73.6134
lradius 36.7512
lwrist -3.34514
lhand -19.6159 30.8836
lfingers 7.12502
lthumb 6.71062 60.7573
rfemur 1.24894 13.6419 42.7104
rtibia 1.84108
rfoot -17.5459 -13.334
rtoes -8.58365
lfemur -37.4659 -1.466 -17.0733
ltibia 36.2784
lfoot -34.2803 1.3145
ltoes -36.6994
437
root 23.1772 15.7198 9.64434 -532.433 -32.8988 -175.513
lowerback 14.3689 3.62869 5.44206
upperback -11.3097 5.96841 0.846535
thorax -21.1724 1.64068 -3.82152
lowerneck -13.7283 5.53184 4.9919
upperneck 37.1306 5.42075 -2.31515
head 15.6151 1.82603 -1.17524
rclavicle 6.92268e-014 -1.03368e-014
rhumerus -48.2866 24.1625 -91.75
rradius 40.3178
rwrist -15.4316
rhand -25.0842 -20.3043
rfingers 7.12502
rthumb 1.43022 -50.2793
lclavicle 6.92268e-014 -1.03368e-014
lhumerus -54.8577 -3.04143 72.8618
lradius 36.5731
lwrist -3.41452
lhand -22.0254 28.0301
lfingers 7.12502
lthumb 4.38428 57.9647
rfemur 2.20729 14.6179 43.1455
rtibia 1.7909
rfoot -17.44 -12.9752
rtoes -7.51311
lfemur -37.801 -3.1606 -15.8098
ltibia 30.3503
lfoot -35.0429 1.90724
ltoes -37.2518
438
root 22.9782 15.6917 9.47012 -532.402 -31.6897 -175.114
lowerback 14.3174 3.72378 5.92906
upperback -11.3646 6.20053 0.843394
thorax -21.1386 1.66261 -4.15716
lowerneck -13.7506 5.84892 5.39633
upperneck 36.9775 5.83017 -2.40679
head 15.5906 2.0502 -1.20843
rclavicle -1.28713e-013 -4.53229e-014
rhumerus -48.3458 24.42 -92.1215
rradius 40.7728
rwrist -15.4941
rhand -25.0937 -20.4213
rfingers 7.12502
rthumb 1.42111 -50.3963
lclavicle -1.28713e-013 -4.53229e-014
lhumerus -54.916 -3.15377 72.2448
lradius 36.5091
lwrist -3.28272
lhand -24.78 25.406
lfingers 7.12502
lthumb 1.72407 55.3788
rfemur 3.26469 15.1337 43.4889
rtibia 1.56286
rfoot -16.8406 -12.4511
rtoes -5.90758
lfemur -37.7273 -5.37818 -14.3929
ltibia 23.8829
lfoot -36.0992 3.95631
ltoes -38.9033
439
root 22.7727 15.6636 9.28818 -532.374 -30.594 -174.914
lowerback 14.3222 3.81456 6.29575
upperback -11.443 6.39837 0.80868
thorax -21.1857 1.67799 -4.45919
lowerneck -13.4477 6.13295 5.78595
upperneck 36.7143 6.20089 -2.501
head 15.4345 2.25694 -1.25294
rclavicle -9.93923e-017 1.90833e-014
rhumerus -48.5167 24.4939 -92.3348
rradius 41.0223
rwrist -15.357
rhand -24.6835 -19.7126
rfingers 7.12502
rthumb 1.8172 -49.6846
lclavicle -9.93923e-017 1.90833e-014
lhumerus -54.9464 -3.22334 71.6394
lradius 36.2216
lwrist -3.16827
lhand -26.0264 25.8413
lfingers 7.12502
lthumb 0.520228 55.8204
rfemur 4.59067 15.4723 43.6555
rtibia 1.08491
rfoot -16.4482 -12.2517
rtoes -5.96539
lfemur -37.3132 -8.77686 -12.496
ltibia 17.1582
lfoot -38.7406 -2.12374
ltoes -28.8248
440
root 22.5638 15.631 9.09618 -532.392 -29.5268 -174.615
lowerback 14.3035 3.88973 6.57938
upperback -11.7937 6.59776 0.911904
thorax -20.9841 1.69596 -4.66927
lowerneck -13.1793 6.50545 6.15273
upperneck 36.5131 6.67027 -2.48523
head 15.3207 2.5157 -1.23017
rclavicle -3.2551e-014 -1.55052e-014
rhumerus -48.7675 24.7622 -92.6345
rradius 41.2315
rwrist -15.4079
rhand -23.725 -19.5345
rfingers 7.12502
rthumb 2.7429 -49.4966
lclavicle -3.2551e-014 -1.55052e-014
lhumerus -54.9228 -2.94642 70.8444
lradius 35.8149
lwrist -3.26394
lhand -23.8833 27.3969
lfingers 7.12502
lthumb 2.59008 57.361
rfemur 6.0723 15.9563 43.9908
rtibia 0.439957
rfoot -16.2471 -12.3584
rtoes -6.62237
lfemur -37.1333 -13.5873 -9.44292
ltibia 11.3298
lfoot -43.6142 0.421269
ltoes -28.7523
441
root 22.3518 15.5939 8.89604 -532.49 -28.6223 -174.113
lowerback 14.256 3.91382 7.12813
upperback -11.8513 6.75625 0.970387
thorax -20.9474 1.68104 -4.94718
lowerneck -13.0925 6.90335 6.50743
upperneck 36.2206 7.12773 -2.26498
head 15.1967 2.80801 -1.11315
rclavicle -1.80397e-014 3.24019e-014
rhumerus -48.9639 25.0338 -92.9325
rradius 41.3094
rwrist -15.5331
rhand -23.2651 -19.552
rfingers 7.12502
rthumb 3.18711 -49.5079
lclavicle -1.80397e-014 3.24019e-014
lhumerus -54.7407 -2.65283 70.0734
lradius 35.501
lwrist -3.1837
lhand -24.232 27.1638
lfingers 7.12502
lthumb 2.25325 57.1316
rfemur 7.51488 16.1253 44.4735
rtibia -0.216185
rfoot -15.8848 -12.3982
rtoes -7.22891
lfemur -37.5488 -18.3872 -6.11763
ltibia 7.20594
lfoot -49.3182 1.55189
ltoes -29.9303
442
root 22.1323 15.5565 8.68659 -532.636 -27.8173 -173.595
lowerback 14.0965 3.94786 7.7267
upperback -11.8981 6.92189 1.00751
thorax -20.8083 1.66828 -5.26526
lowerneck -12.8655 7.22443 7.02305
upperneck 35.8505 7.4871 -2.20547
head 15.018 3.06053 -1.11289
rclavicle -1.06449e-013 -4.59193e-014
rhumerus -49.3071 25.1686 -93.1746
rradius 41.2538
rwrist -15.4684
rhand -23.3379 -19.2784
rfingers 7.12502
rthumb 3.11682 -49.2354
lclavicle -1.06449e-013 -4.59193e-014
lhumerus -54.6582 -2.60035 69.5174
lradius 35.4508
lwrist -2.73948
lhand -24.5097 27.5836
lfingers 7.12502
lthumb 1.98508 57.5541
rfemur 8.82817 15.739 44.7836
rtibia -0.664454
rfoot -15.4585 -12.0522
rtoes -7.70121
lfemur -38.3173 -22.8558 -2.88832
ltibia 4.66751
lfoot -55.1586 4.25933
ltoes -32.9591
443
root 21.939 15.5138 8.47628 -532.66 -27.1011 -173.011
lowerback 14.0079 4.00276 8.0054
upperback -12.0573 7.05913 1.14898
thorax -20.9257 1.67321 -5.2916
lowerneck -12.6598 7.52681 7.58601
upperneck 35.6677 7.82923 -2.27328
head 14.9472 3.28195 -1.17974
rclavicle 1.99779e-014 4.13472e-014
rhumerus -49.8242 25.3062 -93.361
rradius 41.1335
rwrist -15.3854
rhand -23.3697 -19.3446
rfingers 7.12502
rthumb 3.08611 -49.3021
lclavicle 1.99779e-014 4.13472e-014
lhumerus -54.9085 -2.53014 69.1064
lradius 35.8067
lwrist -2.26352
lhand -24.3598 28.7191
lfingers 7.12502
lthumb 2.12992 58.6882
rfemur 9.67406 15.3622 45.2456
rtibia -0.498323
rfoot -15.236 -11.5954
rtoes -8.37617
lfemur -39.4496 -25.3833 -0.40544
ltibia 3.0736
lfoot -58.8824 6.00673
ltoes -33.4684
